<?xml version="1.0" encoding="UTF-8" standalone="no"?>
<svg
   xmlns:dc="http://purl.org/dc/elements/1.1/"
   xmlns:cc="http://creativecommons.org/ns#"
   xmlns:rdf="http://www.w3.org/1999/02/22-rdf-syntax-ns#"
   xmlns:svg="http://www.w3.org/2000/svg"
   xmlns="http://www.w3.org/2000/svg"
   xmlns:sodipodi="http://sodipodi.sourceforge.net/DTD/sodipodi-0.dtd"
   xmlns:inkscape="http://www.inkscape.org/namespaces/inkscape"
   version="1.1"
   id="Layer_1"
   x="0px"
   y="0px"
   viewBox="0 0 30 30"
   style="enable-background:new 0 0 30 30;"
   xml:space="preserve"
   sodipodi:docname="freeze-skip.svg"
   inkscape:version="1.0.2-2 (e86c870879, 2021-01-15)"><metadata
   id="metadata9"><rdf:RDF><cc:Work
       rdf:about=""><dc:format>image/svg+xml</dc:format><dc:type
         rdf:resource="http://purl.org/dc/dcmitype/StillImage" /></cc:Work></rdf:RDF></metadata><defs
   id="defs7" /><sodipodi:namedview
   pagecolor="#ffffff"
   bordercolor="#666666"
   borderopacity="1"
   objecttolerance="10"
   gridtolerance="10"
   guidetolerance="10"
   inkscape:pageopacity="0"
   inkscape:pageshadow="2"
   inkscape:window-width="640"
   inkscape:window-height="480"
   id="namedview5"
   showgrid="false"
   inkscape:zoom="26.166667"
   inkscape:cx="15"
   inkscape:cy="15"
   inkscape:current-layer="Layer_1"
   inkscape:document-rotation="0" />
<path
   id="path2"
   style="fill:#99c1f1;stroke-width:1.24776"
   d="M 15.019531 5.5859375 C 14.76998 5.5859375 14.569217 5.6737289 14.394531 5.8359375 C 14.219842 5.9981461 14.132812 6.2101915 14.132812 6.4472656 C 14.132812 6.6718621 14.219844 6.8709945 14.394531 7.0332031 C 14.569217 7.1954116 14.782457 7.2832031 15.019531 7.2832031 C 15.256606 7.2832031 15.45498 7.1954117 15.617188 7.0332031 C 15.779399 6.8709945 15.867188 6.6718621 15.867188 6.4472656 C 15.867187 6.2101915 15.779397 5.9981461 15.617188 5.8359375 C 15.45498 5.6737288 15.256606 5.5859375 15.019531 5.5859375 z M 15.042969 8.03125 C 14.793417 8.03125 14.594609 8.1182826 14.419922 8.2929688 C 14.245233 8.467655 14.158203 8.6808947 14.158203 8.9179688 L 14.158203 11.960938 L 18.039062 15.841797 L 21.144531 15.841797 C 21.369128 15.841797 21.570214 15.754006 21.732422 15.591797 C 21.894634 15.429589 21.980469 15.230456 21.980469 15.005859 C 21.980469 14.756308 21.894632 14.557498 21.732422 14.382812 C 21.570214 14.208123 21.369128 14.121094 21.144531 14.121094 L 17.115234 14.121094 L 19.958984 11.275391 C 20.108711 11.12566 20.183594 10.926527 20.183594 10.689453 C 20.183594 10.452379 20.108715 10.252811 19.958984 10.078125 C 19.784298 9.9034391 19.572252 9.8164062 19.347656 9.8164062 C 19.123059 9.8164062 18.924686 9.9034394 18.75 10.078125 L 15.892578 12.947266 L 15.892578 8.9179688 C 15.892578 8.6684171 15.804786 8.467655 15.642578 8.2929688 C 15.480369 8.1182825 15.280042 8.03125 15.042969 8.03125 z M 21.058594 8.0820312 C 20.821521 8.0820312 20.620434 8.1690637 20.470703 8.34375 C 20.296014 8.5059586 20.208984 8.7168097 20.208984 8.9414062 C 20.208984 9.1660027 20.296017 9.378048 20.470703 9.5527344 C 20.620434 9.7274197 20.821521 9.8164062 21.058594 9.8164062 C 21.295669 9.8164062 21.495236 9.7274206 21.669922 9.5527344 C 21.844611 9.3780481 21.931641 9.1660028 21.931641 8.9414062 C 21.931641 8.7168096 21.844607 8.5184362 21.669922 8.34375 C 21.495236 8.1690637 21.295669 8.0820312 21.058594 8.0820312 z M 8.2597656 8.4589844 C 8.1508703 8.6023326 8.0820312 8.7640778 8.0820312 8.9414062 C 8.0820309 9.1660028 8.1690637 9.378048 8.34375 9.5527344 C 8.4934809 9.7274202 8.6926134 9.8164062 8.9296875 9.8164062 C 9.1209844 9.8164062 9.2825329 9.7426445 9.4316406 9.6289062 L 8.2597656 8.4589844 z M 10.015625 10.214844 C 9.909718 10.359938 9.8398438 10.516578 9.8398438 10.701172 C 9.8398438 10.938246 9.9288285 11.137377 10.103516 11.287109 L 12.947266 14.132812 L 8.9179688 14.132812 C 8.6808947 14.132813 8.480568 14.219844 8.3183594 14.394531 C 8.1561517 14.569217 8.0683594 14.782457 8.0683594 15.019531 C 8.0683594 15.244128 8.1441086 15.442825 8.34375 15.580078 C 8.5059585 15.74229 8.7043323 15.830078 8.9414062 15.830078 L 12.984375 15.830078 L 10.115234 18.6875 C 9.9405437 18.849708 9.8535156 19.036362 9.8535156 19.273438 C 9.8535156 19.510511 9.9405471 19.71008 10.115234 19.884766 C 10.28992 20.059456 10.489489 20.146484 10.726562 20.146484 C 10.963637 20.146484 11.163204 20.059453 11.337891 19.884766 L 14.169922 17.052734 L 14.169922 21.070312 C 14.169922 21.307387 14.256955 21.519432 14.431641 21.681641 C 14.606328 21.843853 14.819566 21.931641 15.056641 21.931641 C 15.293714 21.931641 15.492089 21.843849 15.654297 21.681641 C 15.816509 21.519432 15.904297 21.307388 15.904297 21.070312 L 15.904297 17.027344 L 18.761719 19.896484 C 18.923928 20.071173 19.136731 20.160156 19.361328 20.160156 C 19.522527 20.160156 19.671429 20.0978 19.810547 20.007812 L 10.015625 10.214844 z M 6.4472656 14.132812 C 6.2101915 14.132813 6.0098648 14.219844 5.8476562 14.394531 C 5.6854475 14.569217 5.5976562 14.782457 5.5976562 15.019531 C 5.5976563 15.244128 5.6722112 15.442502 5.859375 15.617188 C 6.0215836 15.779399 6.2343878 15.867188 6.4589844 15.867188 C 6.6835809 15.867187 6.8963852 15.779397 7.0585938 15.617188 C 7.2208016 15.45498 7.3066406 15.256606 7.3066406 15.019531 C 7.3066406 14.76998 7.2208023 14.569217 7.0585938 14.394531 C 6.8963852 14.219842 6.6843397 14.132812 6.4472656 14.132812 z M 23.566406 14.132812 C 23.329332 14.132812 23.117287 14.219844 22.955078 14.394531 C 22.792866 14.569217 22.705078 14.782457 22.705078 15.019531 C 22.705078 15.244128 22.79287 15.443261 22.955078 15.605469 C 23.117287 15.76768 23.329332 15.855469 23.566406 15.855469 C 23.791002 15.855469 23.990135 15.767678 24.152344 15.605469 C 24.314556 15.443261 24.402344 15.244128 24.402344 15.019531 C 24.402344 14.76998 24.314552 14.569217 24.152344 14.394531 C 23.990135 14.219842 23.791002 14.132812 23.566406 14.132812 z M 8.9296875 20.197266 C 8.6926134 20.197266 8.4934811 20.284297 8.34375 20.458984 C 8.1690637 20.621192 8.0820312 20.833998 8.0820312 21.058594 C 8.082031 21.295669 8.1690635 21.494042 8.34375 21.65625 C 8.4934811 21.830939 8.6926134 21.917969 8.9296875 21.917969 C 9.1667616 21.917969 9.3663293 21.830937 9.5410156 21.65625 C 9.7157018 21.494042 9.8027344 21.283191 9.8027344 21.058594 C 9.8027344 20.833998 9.7157018 20.63367 9.5410156 20.458984 C 9.3663293 20.284295 9.1667616 20.197266 8.9296875 20.197266 z M 20.384766 20.582031 C 20.279102 20.724003 20.208984 20.883918 20.208984 21.058594 C 20.208984 21.295669 20.296017 21.494042 20.470703 21.65625 C 20.620434 21.830939 20.821521 21.917969 21.058594 21.917969 C 21.243571 21.917969 21.399595 21.848534 21.544922 21.742188 L 20.384766 20.582031 z M 15.019531 22.716797 C 14.76998 22.716797 14.569217 22.804589 14.394531 22.966797 C 14.219842 23.129007 14.132812 23.328138 14.132812 23.552734 C 14.132813 23.802286 14.219844 24.001853 14.394531 24.164062 C 14.569217 24.326274 14.782457 24.414062 15.019531 24.414062 C 15.256606 24.414063 15.45498 24.32627 15.617188 24.164062 C 15.779399 24.001854 15.867188 23.789808 15.867188 23.552734 C 15.867187 23.328138 15.779397 23.129007 15.617188 22.966797 C 15.45498 22.804586 15.256606 22.716797 15.019531 22.716797 z " />
<g
   id="path836"
   transform="translate(-1.004883,-2.1636203)"
   style="fill:#77767b"><path
     style="color:#000000;font-style:normal;font-variant:normal;font-weight:normal;font-stretch:normal;font-size:medium;line-height:normal;font-family:sans-serif;font-variant-ligatures:normal;font-variant-position:normal;font-variant-caps:normal;font-variant-numeric:normal;font-variant-alternates:normal;font-variant-east-asian:normal;font-feature-settings:normal;font-variation-settings:normal;text-indent:0;text-align:start;text-decoration:none;text-decoration-line:none;text-decoration-style:solid;text-decoration-color:#000000;letter-spacing:normal;word-spacing:normal;text-transform:none;writing-mode:lr-tb;direction:ltr;text-orientation:mixed;dominant-baseline:auto;baseline-shift:baseline;text-anchor:start;white-space:normal;shape-padding:0;shape-margin:0;inline-size:0;clip-rule:nonzero;display:inline;overflow:visible;visibility:visible;isolation:auto;mix-blend-mode:normal;color-interpolation:sRGB;color-interpolation-filters:linearRGB;solid-color:#000000;solid-opacity:1;vector-effect:none;fill:#77767b;fill-opacity:1;fill-rule:nonzero;stroke:none;stroke-width:1.69425;stroke-linecap:round;stroke-linejoin:miter;stroke-miterlimit:4;stroke-dasharray:none;stroke-dashoffset:0;stroke-opacity:1;color-rendering:auto;image-rendering:auto;shape-rendering:auto;text-rendering:auto;enable-background:accumulate;stop-color:#000000;stop-opacity:1"
     d="M 8.5485547,8.7074324 25.461445,25.620323"
     id="path861" /></g><g
   id="path834"
   transform="translate(-1.004883,-2.1636203)"><path
     style="color:#000000;font-style:normal;font-variant:normal;font-weight:normal;font-stretch:normal;font-size:medium;line-height:normal;font-family:sans-serif;font-variant-ligatures:normal;font-variant-position:normal;font-variant-caps:normal;font-variant-numeric:normal;font-variant-alternates:normal;font-variant-east-asian:normal;font-feature-settings:normal;font-variation-settings:normal;text-indent:0;text-align:start;text-decoration:none;text-decoration-line:none;text-decoration-style:solid;text-decoration-color:#000000;letter-spacing:normal;word-spacing:normal;text-transform:none;writing-mode:lr-tb;direction:ltr;text-orientation:mixed;dominant-baseline:auto;baseline-shift:baseline;text-anchor:start;white-space:normal;shape-padding:0;shape-margin:0;inline-size:0;clip-rule:nonzero;display:inline;overflow:visible;visibility:visible;isolation:auto;mix-blend-mode:normal;color-interpolation:sRGB;color-interpolation-filters:linearRGB;solid-color:#000000;solid-opacity:1;vector-effect:none;fill:#c0bfbc;fill-opacity:1;fill-rule:nonzero;stroke:none;stroke-width:1.69425;stroke-linecap:round;stroke-linejoin:miter;stroke-miterlimit:4;stroke-dasharray:none;stroke-dashoffset:0;stroke-opacity:1;color-rendering:auto;image-rendering:auto;shape-rendering:auto;text-rendering:auto;enable-background:accumulate;stop-color:#000000;stop-opacity:1"
     d="M 6.5485547,8.7074324 23.461445,25.620323"
     id="path867" /><path
     style="color:#000000;font-style:normal;font-variant:normal;font-weight:normal;font-stretch:normal;font-size:medium;line-height:normal;font-family:sans-serif;font-variant-ligatures:normal;font-variant-position:normal;font-variant-caps:normal;font-variant-numeric:normal;font-variant-alternates:normal;font-variant-east-asian:normal;font-feature-settings:normal;font-variation-settings:normal;text-indent:0;text-align:start;text-decoration:none;text-decoration-line:none;text-decoration-style:solid;text-decoration-color:#000000;letter-spacing:normal;word-spacing:normal;text-transform:none;writing-mode:lr-tb;direction:ltr;text-orientation:mixed;dominant-baseline:auto;baseline-shift:baseline;text-anchor:start;white-space:normal;shape-padding:0;shape-margin:0;inline-size:0;clip-rule:nonzero;display:inline;overflow:visible;visibility:visible;isolation:auto;mix-blend-mode:normal;color-interpolation:sRGB;color-interpolation-filters:linearRGB;solid-color:#000000;solid-opacity:1;vector-effect:none;fill:#c0bfbc;fill-opacity:1;fill-rule:nonzero;stroke:none;stroke-linecap:round;stroke-linejoin:miter;stroke-miterlimit:4;stroke-dasharray:none;stroke-dashoffset:0;stroke-opacity:1;color-rendering:auto;image-rendering:auto;shape-rendering:auto;text-rendering:auto;enable-background:accumulate;stop-color:#000000;stop-opacity:1"
     d="m 6.5175781,7.8613281 a 0.84712499,0.84712499 0 0 0 -0.5683593,0.2480469 0.84712499,0.84712499 0 0 0 0,1.1972656 L 22.863281,26.21875 a 0.84712499,0.84712499 0 0 0 1.197266,0 0.84712499,0.84712499 0 0 0 0,-1.197266 L 7.1484375,8.109375 A 0.84712499,0.84712499 0 0 0 6.5175781,7.8613281 Z"
     id="path869" /></g></svg>
