<?xml version="1.0" encoding="UTF-8" standalone="no"?>
<svg
   xmlns:dc="http://purl.org/dc/elements/1.1/"
   xmlns:cc="http://creativecommons.org/ns#"
   xmlns:rdf="http://www.w3.org/1999/02/22-rdf-syntax-ns#"
   xmlns:svg="http://www.w3.org/2000/svg"
   xmlns="http://www.w3.org/2000/svg"
   xmlns:sodipodi="http://sodipodi.sourceforge.net/DTD/sodipodi-0.dtd"
   xmlns:inkscape="http://www.inkscape.org/namespaces/inkscape"
   version="1.1"
   id="Layer_1"
   x="0px"
   y="0px"
   viewBox="0 0 30 30"
   style="enable-background:new 0 0 30 30;"
   xml:space="preserve"
   sodipodi:docname="rain-skip.svg"
   inkscape:version="1.0.2-2 (e86c870879, 2021-01-15)"><metadata
   id="metadata9"><rdf:RDF><cc:Work
       rdf:about=""><dc:format>image/svg+xml</dc:format><dc:type
         rdf:resource="http://purl.org/dc/dcmitype/StillImage" /></cc:Work></rdf:RDF></metadata><defs
   id="defs7" /><sodipodi:namedview
   pagecolor="#ffffff"
   bordercolor="#666666"
   borderopacity="1"
   objecttolerance="10"
   gridtolerance="10"
   guidetolerance="10"
   inkscape:pageopacity="0"
   inkscape:pageshadow="2"
   inkscape:window-width="640"
   inkscape:window-height="480"
   id="namedview5"
   showgrid="false"
   inkscape:zoom="26.166667"
   inkscape:cx="15"
   inkscape:cy="15"
   inkscape:current-layer="Layer_1"
   inkscape:document-rotation="0" />
<path
   style="fill:#99c1f1"
   d="m 17.644531,17.841797 -0.86914,3.078125 c -0.03,0.12 -0.04102,0.190469 -0.04102,0.230469 0,0.16 0.05063,0.31875 0.140625,0.46875 0.11,0.16 0.260938,0.260312 0.460938,0.320312 l 0.238281,0.05078 c 0.19,0 0.361719,-0.05992 0.511719,-0.169922 0.149999,-0.11 0.239296,-0.270937 0.279296,-0.460937 l 0.619141,-2.177734 z"
   id="path845" /><path
   style="fill:#99c1f1"
   d="m 15.029297,15.226562 -2.423828,8.712891 c -0.07,0.26 -0.05141,0.470391 0.05859,0.650391 0.150001,0.21 0.321485,0.340625 0.521485,0.390625 0.07,0.03 0.16,0.04883 0.25,0.04883 0.19,0 0.349766,-0.05969 0.509765,-0.179688 0.160001,-0.12 0.249063,-0.259687 0.289063,-0.429687 l 2.164063,-7.822266 z"
   id="path843" /><path
   style="fill:#99c1f1"
   d="m 12.435547,14.570312 c -0.15,0 -0.310938,0.05039 -0.460938,0.150391 -0.15,0.1 -0.260312,0.249453 -0.320312,0.439453 l -1.628906,5.769532 c -0.030001,0.09 -0.041016,0.161171 -0.041016,0.201171 0,0.17 0.050156,0.33 0.160156,0.5 0.11,0.16 0.270235,0.270078 0.490235,0.330079 0.01,-10e-7 0.03961,0.0093 0.09961,0.0293 0.04,0.01 0.07133,0.01953 0.111328,0.01953 0.42,0 0.69836,-0.210625 0.818359,-0.640625 l 1.63086,-5.728516 c 0.07,-0.25 0.03992,-0.469922 -0.08008,-0.669922 -0.12,-0.2 -0.299063,-0.331094 -0.539063,-0.371094 -0.09,-0.02 -0.170234,-0.0293 -0.240234,-0.0293 z"
   id="path841" /><path
   style="fill:#99c1f1"
   d="m 19.164062,14.560547 c -0.16,0 -0.308984,0.05039 -0.458984,0.150391 -0.14,0.1 -0.240781,0.249453 -0.300781,0.439453 l -0.232422,0.824218 1.341797,1.341797 0.480469,-1.685547 c 0,-0.02 0.01148,-0.06109 0.02148,-0.121093 0.01,-0.06 0.01953,-0.110625 0.01953,-0.140625 0,-0.16 -0.05039,-0.31875 -0.15039,-0.46875 -0.1,-0.15 -0.248985,-0.250547 -0.458985,-0.310547 -0.09,-0.02 -0.181719,-0.0293 -0.261719,-0.0293 z"
   id="path839" /><path
   id="path837"
   style="fill:#c0bfbc"
   d="M 14.304688 4.9707031 C 12.894685 4.9707031 11.644686 5.3992969 10.554688 6.2792969 C 10.159819 6.5980893 9.8331362 6.9597893 9.5390625 7.3417969 L 10.751953 8.5546875 C 10.943834 8.2692538 11.162336 7.996227 11.435547 7.75 C 12.235547 7.02 13.195156 6.6601562 14.285156 6.6601562 C 15.375156 6.6601564 16.314766 7.02 17.134766 7.75 C 17.944766 8.47 18.415391 9.3809365 18.525391 10.460938 L 18.605469 11.039062 C 18.605469 11.149064 18.665159 11.210937 18.785156 11.210938 L 20.394531 11.210938 C 21.284531 11.210938 22.055078 11.529922 22.705078 12.169922 C 23.355078 12.809922 23.685547 13.559688 23.685547 14.429688 C 23.685547 15.299686 23.385156 16.049453 22.785156 16.689453 C 22.185156 17.329453 21.455469 17.670938 20.605469 17.710938 C 20.475469 17.710938 20.404297 17.770628 20.404297 17.890625 L 20.404297 18.207031 L 21.478516 19.28125 C 22.016312 19.169157 22.528135 18.974174 23.005859 18.679688 C 23.735859 18.229688 24.314375 17.630859 24.734375 16.880859 C 25.154375 16.130859 25.365234 15.319453 25.365234 14.439453 C 25.365234 13.549453 25.135313 12.720703 24.695312 11.970703 C 24.255312 11.220703 23.644766 10.619453 22.884766 10.189453 C 22.124766 9.7594533 21.294297 9.5390625 20.404297 9.5390625 L 20.085938 9.5390625 C 19.765937 8.1990625 19.064375 7.1 17.984375 6.25 C 16.904375 5.4 15.684686 4.9707031 14.304688 4.9707031 z M 8.6835938 8.8828125 C 8.5932948 9.1291115 8.5055696 9.3762711 8.4453125 9.640625 C 7.3453125 9.900625 6.4348437 10.469141 5.7148438 11.369141 C 4.9948438 12.269141 4.6347656 13.289453 4.6347656 14.439453 C 4.6347656 15.769453 5.0758594 16.909141 6.0058594 17.869141 C 6.9358594 18.829141 8.0642969 19.340391 9.4042969 19.400391 C 9.5142969 19.400391 9.5742188 19.340471 9.5742188 19.230469 L 9.5742188 17.900391 C 9.5742188 17.780391 9.5142968 17.720703 9.4042969 17.720703 C 8.5542969 17.680703 7.8246094 17.339219 7.2246094 16.699219 C 6.6246094 16.059219 6.3242188 15.309453 6.3242188 14.439453 C 6.3242188 13.609453 6.6057812 12.889297 7.1757812 12.279297 C 7.7457813 11.669297 8.4453906 11.310936 9.2753906 11.210938 L 9.8046875 11.179688 C 9.9346875 11.179685 10.005859 11.110238 10.005859 10.990234 L 10.074219 10.460938 C 10.079319 10.405947 10.096596 10.356798 10.103516 10.302734 L 8.6835938 8.8828125 z " />
<g
   id="path836"
   transform="translate(-1.004883,-2.1636203)"
   style="fill:#77767b"><path
     style="color:#000000;font-style:normal;font-variant:normal;font-weight:normal;font-stretch:normal;font-size:medium;line-height:normal;font-family:sans-serif;font-variant-ligatures:normal;font-variant-position:normal;font-variant-caps:normal;font-variant-numeric:normal;font-variant-alternates:normal;font-variant-east-asian:normal;font-feature-settings:normal;font-variation-settings:normal;text-indent:0;text-align:start;text-decoration:none;text-decoration-line:none;text-decoration-style:solid;text-decoration-color:#000000;letter-spacing:normal;word-spacing:normal;text-transform:none;writing-mode:lr-tb;direction:ltr;text-orientation:mixed;dominant-baseline:auto;baseline-shift:baseline;text-anchor:start;white-space:normal;shape-padding:0;shape-margin:0;inline-size:0;clip-rule:nonzero;display:inline;overflow:visible;visibility:visible;isolation:auto;mix-blend-mode:normal;color-interpolation:sRGB;color-interpolation-filters:linearRGB;solid-color:#000000;solid-opacity:1;vector-effect:none;fill:#77767b;fill-opacity:1;fill-rule:nonzero;stroke:none;stroke-width:1.69425;stroke-linecap:round;stroke-linejoin:miter;stroke-miterlimit:4;stroke-dasharray:none;stroke-dashoffset:0;stroke-opacity:1;color-rendering:auto;image-rendering:auto;shape-rendering:auto;text-rendering:auto;enable-background:accumulate;stop-color:#000000;stop-opacity:1"
     d="M 8.5485547,8.7074324 25.461445,25.620323"
     id="path861" /></g><g
   id="path834"
   transform="translate(-1.004883,-2.1636203)"><path
     style="color:#000000;font-style:normal;font-variant:normal;font-weight:normal;font-stretch:normal;font-size:medium;line-height:normal;font-family:sans-serif;font-variant-ligatures:normal;font-variant-position:normal;font-variant-caps:normal;font-variant-numeric:normal;font-variant-alternates:normal;font-variant-east-asian:normal;font-feature-settings:normal;font-variation-settings:normal;text-indent:0;text-align:start;text-decoration:none;text-decoration-line:none;text-decoration-style:solid;text-decoration-color:#000000;letter-spacing:normal;word-spacing:normal;text-transform:none;writing-mode:lr-tb;direction:ltr;text-orientation:mixed;dominant-baseline:auto;baseline-shift:baseline;text-anchor:start;white-space:normal;shape-padding:0;shape-margin:0;inline-size:0;clip-rule:nonzero;display:inline;overflow:visible;visibility:visible;isolation:auto;mix-blend-mode:normal;color-interpolation:sRGB;color-interpolation-filters:linearRGB;solid-color:#000000;solid-opacity:1;vector-effect:none;fill:#c0bfbc;fill-opacity:1;fill-rule:nonzero;stroke:none;stroke-width:1.69425;stroke-linecap:round;stroke-linejoin:miter;stroke-miterlimit:4;stroke-dasharray:none;stroke-dashoffset:0;stroke-opacity:1;color-rendering:auto;image-rendering:auto;shape-rendering:auto;text-rendering:auto;enable-background:accumulate;stop-color:#000000;stop-opacity:1"
     d="M 6.5485547,8.7074324 23.461445,25.620323"
     id="path867" /><path
     style="color:#000000;font-style:normal;font-variant:normal;font-weight:normal;font-stretch:normal;font-size:medium;line-height:normal;font-family:sans-serif;font-variant-ligatures:normal;font-variant-position:normal;font-variant-caps:normal;font-variant-numeric:normal;font-variant-alternates:normal;font-variant-east-asian:normal;font-feature-settings:normal;font-variation-settings:normal;text-indent:0;text-align:start;text-decoration:none;text-decoration-line:none;text-decoration-style:solid;text-decoration-color:#000000;letter-spacing:normal;word-spacing:normal;text-transform:none;writing-mode:lr-tb;direction:ltr;text-orientation:mixed;dominant-baseline:auto;baseline-shift:baseline;text-anchor:start;white-space:normal;shape-padding:0;shape-margin:0;inline-size:0;clip-rule:nonzero;display:inline;overflow:visible;visibility:visible;isolation:auto;mix-blend-mode:normal;color-interpolation:sRGB;color-interpolation-filters:linearRGB;solid-color:#000000;solid-opacity:1;vector-effect:none;fill:#c0bfbc;fill-opacity:1;fill-rule:nonzero;stroke:none;stroke-linecap:round;stroke-linejoin:miter;stroke-miterlimit:4;stroke-dasharray:none;stroke-dashoffset:0;stroke-opacity:1;color-rendering:auto;image-rendering:auto;shape-rendering:auto;text-rendering:auto;enable-background:accumulate;stop-color:#000000;stop-opacity:1"
     d="m 6.5175781,7.8613281 a 0.84712499,0.84712499 0 0 0 -0.5683593,0.2480469 0.84712499,0.84712499 0 0 0 0,1.1972656 L 22.863281,26.21875 a 0.84712499,0.84712499 0 0 0 1.197266,0 0.84712499,0.84712499 0 0 0 0,-1.197266 L 7.1484375,8.109375 A 0.84712499,0.84712499 0 0 0 6.5175781,7.8613281 Z"
     id="path869" /></g></svg>
