<?xml version="1.0" encoding="UTF-8" standalone="no"?>
<svg
   xmlns:dc="http://purl.org/dc/elements/1.1/"
   xmlns:cc="http://creativecommons.org/ns#"
   xmlns:rdf="http://www.w3.org/1999/02/22-rdf-syntax-ns#"
   xmlns:svg="http://www.w3.org/2000/svg"
   xmlns="http://www.w3.org/2000/svg"
   xmlns:sodipodi="http://sodipodi.sourceforge.net/DTD/sodipodi-0.dtd"
   xmlns:inkscape="http://www.inkscape.org/namespaces/inkscape"
   version="1.1"
   id="Layer_1"
   x="0px"
   y="0px"
   viewBox="0 0 30 30"
   style="enable-background:new 0 0 30 30;"
   xml:space="preserve"
   sodipodi:docname="rain-sensor-skip.svg"
   inkscape:version="1.0.2-2 (e86c870879, 2021-01-15)"><metadata
   id="metadata9"><rdf:RDF><cc:Work
       rdf:about=""><dc:format>image/svg+xml</dc:format><dc:type
         rdf:resource="http://purl.org/dc/dcmitype/StillImage" /></cc:Work></rdf:RDF></metadata><defs
   id="defs7" /><sodipodi:namedview
   pagecolor="#ffffff"
   bordercolor="#666666"
   borderopacity="1"
   objecttolerance="10"
   gridtolerance="10"
   guidetolerance="10"
   inkscape:pageopacity="0"
   inkscape:pageshadow="2"
   inkscape:window-width="640"
   inkscape:window-height="480"
   id="namedview5"
   showgrid="false"
   inkscape:zoom="26.166667"
   inkscape:cx="15"
   inkscape:cy="15"
   inkscape:current-layer="Layer_1"
   inkscape:document-rotation="0" />

<g
   id="g864"
   transform="translate(0.222904,-0.05451224)"
   style="fill:#99c1f1"><path
     d="m 12.265691,21.888705 c 0,0.443048 0.110762,0.857201 0.337101,1.237644 0.22634,0.380443 0.529731,0.688649 0.914989,0.914989 0.38526,0.226339 0.799413,0.341917 1.247275,0.341917 0.447864,0 0.866833,-0.115578 1.256907,-0.341917 0.390074,-0.22634 0.698282,-0.534546 0.92462,-0.914989 0.226341,-0.38526 0.341918,-0.794596 0.341918,-1.237644 0,-0.288944 -0.08187,-0.630861 -0.250418,-1.030567 C 16.869533,20.458433 16.667271,20.08762 16.4313,19.75052 16.219408,19.476023 15.96899,19.172631 15.680046,18.845162 15.391102,18.517691 14.88545,18.01204 14.769872,17.896462 l -0.616414,0.621229 c -0.298575,0.288945 -0.587519,0.62123 -0.862016,1.001673 -0.274496,0.380443 -0.515283,0.78978 -0.717544,1.228013 -0.211892,0.438231 -0.308207,0.818674 -0.308207,1.141328 z"
     id="path2"
     style="fill:#99c1f1;stroke-width:0.481571" /><g
     id="g857"
     transform="matrix(1.0818786,0,0,1.0818786,-1.2099277,-0.49800135)"
     style="fill:#99c1f1"><path
       id="path852"
       style="fill:#99c1f1;stroke:none;stroke-width:0.568932"
       d="M 15 6.0273438 C 14.104677 6.0273437 13.912952 6.0389335 13.214844 6.1386719 C 11.921247 6.3234897 10.676777 6.7169738 9.5136719 7.2910156 L 11.208984 8.9863281 C 12.011504 8.6703435 12.843462 8.454538 13.703125 8.3476562 C 14.323876 8.2705075 15.290006 8.247206 15.828125 8.296875 C 17.269474 8.4299937 18.474364 8.7701788 19.691406 9.3867188 C 20.675141 9.8850742 21.471363 10.458079 22.279297 11.248047 C 22.469315 11.433842 22.605164 11.551067 22.65625 11.574219 C 22.761803 11.622178 22.936155 11.622877 23.042969 11.576172 C 23.154446 11.527432 24.055611 10.619568 24.085938 10.525391 C 24.098141 10.48614 24.105026 10.372095 24.101562 10.240234 C 24.096662 10.061357 24.08782 10.005216 24.056641 9.9453125 C 24.000021 9.8364982 23.418072 9.2770014 22.984375 8.9140625 C 21.200547 7.4212485 19.06448 6.4643227 16.785156 6.1386719 C 16.087048 6.0389649 15.895328 6.0273437 15 6.0273438 z M 8.0019531 8.1757812 C 7.6640814 8.4065726 7.3324464 8.6489285 7.015625 8.9140625 C 6.5819282 9.2770014 5.9999687 9.8364982 5.9433594 9.9453125 C 5.9121818 10.005215 5.9029922 10.061357 5.8984375 10.240234 C 5.8947959 10.372095 5.9014326 10.48614 5.9140625 10.525391 C 5.9425035 10.613707 6.8443948 11.527585 6.9511719 11.576172 C 7.0534715 11.622487 7.24004 11.62127 7.34375 11.574219 C 7.3947832 11.551063 7.5306853 11.433838 7.7207031 11.248047 C 8.3266585 10.655567 8.9266947 10.185773 9.6035156 9.7773438 L 8.0019531 8.1757812 z M 15.279297 9.796875 C 14.3151 9.7663544 13.344691 9.8994849 12.412109 10.189453 L 14.337891 12.115234 C 14.554399 12.095203 14.762727 12.064453 15 12.064453 C 15.779636 12.064453 16.411825 12.166624 17.128906 12.410156 C 18.114934 12.745024 19.071508 13.351257 19.730469 14.058594 C 19.855736 14.193057 19.939921 14.267765 19.988281 14.287109 C 20.078428 14.323179 20.256193 14.323997 20.339844 14.289062 C 20.429621 14.251541 21.394033 13.283633 21.419922 13.205078 C 21.430708 13.171516 21.437056 13.049802 21.433594 12.925781 C 21.428704 12.74675 21.419906 12.692988 21.388672 12.632812 C 21.314455 12.490039 20.637726 11.86184 20.195312 11.525391 C 19.635649 11.099767 18.8804 10.675333 18.191406 10.400391 C 17.263131 10.029965 16.2755 9.8284087 15.279297 9.796875 z M 10.746094 10.919922 C 10.409367 11.109324 10.084942 11.312259 9.8046875 11.525391 C 9.3622803 11.86184 8.685545 12.490039 8.6113281 12.632812 C 8.5800943 12.692984 8.5709502 12.74675 8.5664062 12.925781 C 8.5629983 13.049507 8.569043 13.171681 8.5800781 13.205078 C 8.604059 13.277748 9.5501106 14.232382 9.6464844 14.28125 C 9.7282852 14.322459 9.9145658 14.32597 10.011719 14.287109 C 10.060083 14.267765 10.144264 14.19306 10.269531 14.058594 C 10.827195 13.45999 11.600445 12.944341 12.421875 12.59375 L 10.746094 10.919922 z M 15.892578 13.669922 L 18.431641 16.208984 C 18.555215 16.076947 18.723648 15.906146 18.732422 15.878906 C 18.762693 15.785004 18.746065 15.410053 18.707031 15.3125 C 18.67191 15.224719 18.337212 14.892737 18.052734 14.662109 C 17.498253 14.212584 16.771248 13.858965 16.076172 13.701172 C 16.006863 13.685436 15.954025 13.681677 15.892578 13.669922 z M 13.619141 13.791016 C 13.020831 13.972797 12.420519 14.278226 11.947266 14.662109 C 11.695388 14.86643 11.341935 15.212137 11.296875 15.298828 C 11.264851 15.360461 11.257038 15.41344 11.251953 15.601562 C 11.246609 15.799901 11.251234 15.840461 11.283203 15.90625 C 11.331483 16.005517 12.221088 16.895081 12.322266 16.945312 C 12.419758 16.993836 12.608212 16.995869 12.710938 16.949219 C 12.754921 16.929239 12.834299 16.860151 12.904297 16.78125 C 12.969547 16.707688 13.097082 16.584908 13.189453 16.507812 C 13.929776 15.889978 14.911105 15.707622 15.800781 15.972656 L 13.619141 13.791016 z "
       transform="matrix(0.92431813,0,0,0.92431813,0.9123239,0.51069833)" /></g></g><g
   id="path836"
   style="fill:#77767b"
   transform="translate(-1.004883,-2.1894909)"><path
     style="color:#000000;font-style:normal;font-variant:normal;font-weight:normal;font-stretch:normal;font-size:medium;line-height:normal;font-family:sans-serif;font-variant-ligatures:normal;font-variant-position:normal;font-variant-caps:normal;font-variant-numeric:normal;font-variant-alternates:normal;font-variant-east-asian:normal;font-feature-settings:normal;font-variation-settings:normal;text-indent:0;text-align:start;text-decoration:none;text-decoration-line:none;text-decoration-style:solid;text-decoration-color:#000000;letter-spacing:normal;word-spacing:normal;text-transform:none;writing-mode:lr-tb;direction:ltr;text-orientation:mixed;dominant-baseline:auto;baseline-shift:baseline;text-anchor:start;white-space:normal;shape-padding:0;shape-margin:0;inline-size:0;clip-rule:nonzero;display:inline;overflow:visible;visibility:visible;isolation:auto;mix-blend-mode:normal;color-interpolation:sRGB;color-interpolation-filters:linearRGB;solid-color:#000000;solid-opacity:1;vector-effect:none;fill:#77767b;fill-opacity:1;fill-rule:nonzero;stroke:none;stroke-width:1.69425;stroke-linecap:round;stroke-linejoin:miter;stroke-miterlimit:4;stroke-dasharray:none;stroke-dashoffset:0;stroke-opacity:1;color-rendering:auto;image-rendering:auto;shape-rendering:auto;text-rendering:auto;enable-background:accumulate;stop-color:#000000;stop-opacity:1"
     d="M 8.5485547,8.7074324 25.461445,25.620323"
     id="path861" /></g><g
   id="path834"
   transform="translate(-1.004883,-2.1894909)"><path
     style="color:#000000;font-style:normal;font-variant:normal;font-weight:normal;font-stretch:normal;font-size:medium;line-height:normal;font-family:sans-serif;font-variant-ligatures:normal;font-variant-position:normal;font-variant-caps:normal;font-variant-numeric:normal;font-variant-alternates:normal;font-variant-east-asian:normal;font-feature-settings:normal;font-variation-settings:normal;text-indent:0;text-align:start;text-decoration:none;text-decoration-line:none;text-decoration-style:solid;text-decoration-color:#000000;letter-spacing:normal;word-spacing:normal;text-transform:none;writing-mode:lr-tb;direction:ltr;text-orientation:mixed;dominant-baseline:auto;baseline-shift:baseline;text-anchor:start;white-space:normal;shape-padding:0;shape-margin:0;inline-size:0;clip-rule:nonzero;display:inline;overflow:visible;visibility:visible;isolation:auto;mix-blend-mode:normal;color-interpolation:sRGB;color-interpolation-filters:linearRGB;solid-color:#000000;solid-opacity:1;vector-effect:none;fill:#c0bfbc;fill-opacity:1;fill-rule:nonzero;stroke:none;stroke-width:1.69425;stroke-linecap:round;stroke-linejoin:miter;stroke-miterlimit:4;stroke-dasharray:none;stroke-dashoffset:0;stroke-opacity:1;color-rendering:auto;image-rendering:auto;shape-rendering:auto;text-rendering:auto;enable-background:accumulate;stop-color:#000000;stop-opacity:1"
     d="M 6.5485547,8.7074324 23.461445,25.620323"
     id="path867" /><path
     style="color:#000000;font-style:normal;font-variant:normal;font-weight:normal;font-stretch:normal;font-size:medium;line-height:normal;font-family:sans-serif;font-variant-ligatures:normal;font-variant-position:normal;font-variant-caps:normal;font-variant-numeric:normal;font-variant-alternates:normal;font-variant-east-asian:normal;font-feature-settings:normal;font-variation-settings:normal;text-indent:0;text-align:start;text-decoration:none;text-decoration-line:none;text-decoration-style:solid;text-decoration-color:#000000;letter-spacing:normal;word-spacing:normal;text-transform:none;writing-mode:lr-tb;direction:ltr;text-orientation:mixed;dominant-baseline:auto;baseline-shift:baseline;text-anchor:start;white-space:normal;shape-padding:0;shape-margin:0;inline-size:0;clip-rule:nonzero;display:inline;overflow:visible;visibility:visible;isolation:auto;mix-blend-mode:normal;color-interpolation:sRGB;color-interpolation-filters:linearRGB;solid-color:#000000;solid-opacity:1;vector-effect:none;fill:#c0bfbc;fill-opacity:1;fill-rule:nonzero;stroke:none;stroke-linecap:round;stroke-linejoin:miter;stroke-miterlimit:4;stroke-dasharray:none;stroke-dashoffset:0;stroke-opacity:1;color-rendering:auto;image-rendering:auto;shape-rendering:auto;text-rendering:auto;enable-background:accumulate;stop-color:#000000;stop-opacity:1"
     d="m 6.5175781,7.8613281 a 0.84712499,0.84712499 0 0 0 -0.5683593,0.2480469 0.84712499,0.84712499 0 0 0 0,1.1972656 L 22.863281,26.21875 a 0.84712499,0.84712499 0 0 0 1.197266,0 0.84712499,0.84712499 0 0 0 0,-1.197266 L 7.1484375,8.109375 A 0.84712499,0.84712499 0 0 0 6.5175781,7.8613281 Z"
     id="path869" /></g></svg>
