<?xml version="1.0" encoding="UTF-8" standalone="no"?>
<svg
   xmlns:dc="http://purl.org/dc/elements/1.1/"
   xmlns:cc="http://creativecommons.org/ns#"
   xmlns:rdf="http://www.w3.org/1999/02/22-rdf-syntax-ns#"
   xmlns:svg="http://www.w3.org/2000/svg"
   xmlns="http://www.w3.org/2000/svg"
   xmlns:sodipodi="http://sodipodi.sourceforge.net/DTD/sodipodi-0.dtd"
   xmlns:inkscape="http://www.inkscape.org/namespaces/inkscape"
   version="1.1"
   id="Layer_1"
   x="0px"
   y="0px"
   viewBox="0 0 30 30"
   style="enable-background:new 0 0 30 30;"
   xml:space="preserve"
   sodipodi:docname="saturation-skip.svg"
   inkscape:version="1.0.2-2 (e86c870879, 2021-01-15)"><metadata
   id="metadata9"><rdf:RDF><cc:Work
       rdf:about=""><dc:format>image/svg+xml</dc:format><dc:type
         rdf:resource="http://purl.org/dc/dcmitype/StillImage" /></cc:Work></rdf:RDF></metadata><defs
   id="defs7" /><sodipodi:namedview
   pagecolor="#ffffff"
   bordercolor="#666666"
   borderopacity="1"
   objecttolerance="10"
   gridtolerance="10"
   guidetolerance="10"
   inkscape:pageopacity="0"
   inkscape:pageshadow="2"
   inkscape:window-width="640"
   inkscape:window-height="480"
   id="namedview5"
   showgrid="false"
   inkscape:zoom="26.166667"
   inkscape:cx="15"
   inkscape:cy="15"
   inkscape:current-layer="Layer_1"
   inkscape:document-rotation="0" />
<path
   id="path2"
   style="fill:#99c1f1;stroke-width:1.37084"
   d="M 12.724609 8.1894531 L 12.380859 8.5742188 C 12.135969 8.8577768 11.91712 9.1686167 11.720703 9.5234375 L 13.685547 11.488281 C 13.693764 11.48046 13.702852 11.474882 13.710938 11.466797 C 13.957688 11.206338 14.095703 10.89161 14.095703 10.521484 C 14.095703 9.9320244 13.643071 9.1490405 12.724609 8.1894531 z M 18.400391 10.849609 L 17.892578 11.439453 C 17.508744 11.864413 17.166855 12.344207 16.851562 12.90625 C 16.564473 13.418018 16.40951 13.834931 16.382812 14.185547 L 18.533203 16.335938 C 19.039159 16.30531 19.488286 16.10937 19.853516 15.744141 C 20.25106 15.332889 20.455078 14.85306 20.455078 14.291016 C 20.455078 13.934598 20.278256 13.482002 19.935547 12.90625 C 19.592837 12.330499 19.248886 11.850595 18.933594 11.480469 C 18.851344 11.384509 18.742516 11.246495 18.619141 11.095703 C 18.495765 10.944911 18.414099 10.863318 18.400391 10.849609 z M 12.875 14.714844 L 12.533203 15.044922 C 11.998576 15.552132 11.394367 16.251569 10.722656 17.128906 C 10.366238 17.594991 10.092381 18.088457 9.8730469 18.609375 C 9.6537128 19.130294 9.5449219 19.580973 9.5449219 19.978516 C 9.5449219 20.924395 9.859612 21.707267 10.503906 22.351562 C 11.1482 22.995856 11.94283 23.310547 12.875 23.310547 C 13.80717 23.310547 14.588127 22.982185 15.232422 22.337891 C 15.876716 21.693597 16.179688 20.896978 16.179688 19.978516 C 16.179688 19.580973 16.068943 19.13033 15.849609 18.595703 C 15.630275 18.074784 15.356345 17.581246 15.027344 17.142578 C 14.396758 16.306367 13.808174 15.606966 13.232422 15.044922 C 13.177592 15.003802 13.053209 14.893053 12.875 14.714844 z " />
<g
   id="path836"
   transform="translate(-1.004883,-2.1636203)"
   style="fill:#77767b"><path
     style="color:#000000;font-style:normal;font-variant:normal;font-weight:normal;font-stretch:normal;font-size:medium;line-height:normal;font-family:sans-serif;font-variant-ligatures:normal;font-variant-position:normal;font-variant-caps:normal;font-variant-numeric:normal;font-variant-alternates:normal;font-variant-east-asian:normal;font-feature-settings:normal;font-variation-settings:normal;text-indent:0;text-align:start;text-decoration:none;text-decoration-line:none;text-decoration-style:solid;text-decoration-color:#000000;letter-spacing:normal;word-spacing:normal;text-transform:none;writing-mode:lr-tb;direction:ltr;text-orientation:mixed;dominant-baseline:auto;baseline-shift:baseline;text-anchor:start;white-space:normal;shape-padding:0;shape-margin:0;inline-size:0;clip-rule:nonzero;display:inline;overflow:visible;visibility:visible;isolation:auto;mix-blend-mode:normal;color-interpolation:sRGB;color-interpolation-filters:linearRGB;solid-color:#000000;solid-opacity:1;vector-effect:none;fill:#77767b;fill-opacity:1;fill-rule:nonzero;stroke:none;stroke-width:1.69425;stroke-linecap:round;stroke-linejoin:miter;stroke-miterlimit:4;stroke-dasharray:none;stroke-dashoffset:0;stroke-opacity:1;color-rendering:auto;image-rendering:auto;shape-rendering:auto;text-rendering:auto;enable-background:accumulate;stop-color:#000000;stop-opacity:1"
     d="M 8.5485547,8.7074324 25.461445,25.620323"
     id="path861" /></g><g
   id="path834"
   transform="translate(-1.004883,-2.1636203)"><path
     style="color:#000000;font-style:normal;font-variant:normal;font-weight:normal;font-stretch:normal;font-size:medium;line-height:normal;font-family:sans-serif;font-variant-ligatures:normal;font-variant-position:normal;font-variant-caps:normal;font-variant-numeric:normal;font-variant-alternates:normal;font-variant-east-asian:normal;font-feature-settings:normal;font-variation-settings:normal;text-indent:0;text-align:start;text-decoration:none;text-decoration-line:none;text-decoration-style:solid;text-decoration-color:#000000;letter-spacing:normal;word-spacing:normal;text-transform:none;writing-mode:lr-tb;direction:ltr;text-orientation:mixed;dominant-baseline:auto;baseline-shift:baseline;text-anchor:start;white-space:normal;shape-padding:0;shape-margin:0;inline-size:0;clip-rule:nonzero;display:inline;overflow:visible;visibility:visible;isolation:auto;mix-blend-mode:normal;color-interpolation:sRGB;color-interpolation-filters:linearRGB;solid-color:#000000;solid-opacity:1;vector-effect:none;fill:#c0bfbc;fill-opacity:1;fill-rule:nonzero;stroke:none;stroke-width:1.69425;stroke-linecap:round;stroke-linejoin:miter;stroke-miterlimit:4;stroke-dasharray:none;stroke-dashoffset:0;stroke-opacity:1;color-rendering:auto;image-rendering:auto;shape-rendering:auto;text-rendering:auto;enable-background:accumulate;stop-color:#000000;stop-opacity:1"
     d="M 6.5485547,8.7074324 23.461445,25.620323"
     id="path867" /><path
     style="color:#000000;font-style:normal;font-variant:normal;font-weight:normal;font-stretch:normal;font-size:medium;line-height:normal;font-family:sans-serif;font-variant-ligatures:normal;font-variant-position:normal;font-variant-caps:normal;font-variant-numeric:normal;font-variant-alternates:normal;font-variant-east-asian:normal;font-feature-settings:normal;font-variation-settings:normal;text-indent:0;text-align:start;text-decoration:none;text-decoration-line:none;text-decoration-style:solid;text-decoration-color:#000000;letter-spacing:normal;word-spacing:normal;text-transform:none;writing-mode:lr-tb;direction:ltr;text-orientation:mixed;dominant-baseline:auto;baseline-shift:baseline;text-anchor:start;white-space:normal;shape-padding:0;shape-margin:0;inline-size:0;clip-rule:nonzero;display:inline;overflow:visible;visibility:visible;isolation:auto;mix-blend-mode:normal;color-interpolation:sRGB;color-interpolation-filters:linearRGB;solid-color:#000000;solid-opacity:1;vector-effect:none;fill:#c0bfbc;fill-opacity:1;fill-rule:nonzero;stroke:none;stroke-linecap:round;stroke-linejoin:miter;stroke-miterlimit:4;stroke-dasharray:none;stroke-dashoffset:0;stroke-opacity:1;color-rendering:auto;image-rendering:auto;shape-rendering:auto;text-rendering:auto;enable-background:accumulate;stop-color:#000000;stop-opacity:1"
     d="m 6.5175781,7.8613281 a 0.84712499,0.84712499 0 0 0 -0.5683593,0.2480469 0.84712499,0.84712499 0 0 0 0,1.1972656 L 22.863281,26.21875 a 0.84712499,0.84712499 0 0 0 1.197266,0 0.84712499,0.84712499 0 0 0 0,-1.197266 L 7.1484375,8.109375 A 0.84712499,0.84712499 0 0 0 6.5175781,7.8613281 Z"
     id="path869" /></g></svg>
