<?xml version="1.0" encoding="UTF-8" standalone="no"?>
<svg
   xmlns:dc="http://purl.org/dc/elements/1.1/"
   xmlns:cc="http://creativecommons.org/ns#"
   xmlns:rdf="http://www.w3.org/1999/02/22-rdf-syntax-ns#"
   xmlns:svg="http://www.w3.org/2000/svg"
   xmlns="http://www.w3.org/2000/svg"
   xmlns:sodipodi="http://sodipodi.sourceforge.net/DTD/sodipodi-0.dtd"
   xmlns:inkscape="http://www.inkscape.org/namespaces/inkscape"
   version="1.1"
   id="Layer_1"
   x="0px"
   y="0px"
   viewBox="0 0 30 30"
   style="enable-background:new 0 0 30 30;"
   xml:space="preserve"
   sodipodi:docname="watering.svg"
   inkscape:version="1.0.2-2 (e86c870879, 2021-01-15)"><metadata
   id="metadata9"><rdf:RDF><cc:Work
       rdf:about=""><dc:format>image/svg+xml</dc:format><dc:type
         rdf:resource="http://purl.org/dc/dcmitype/StillImage" /></cc:Work></rdf:RDF></metadata><defs
   id="defs7" /><sodipodi:namedview
   pagecolor="#ffffff"
   bordercolor="#666666"
   borderopacity="1"
   objecttolerance="10"
   gridtolerance="10"
   guidetolerance="10"
   inkscape:pageopacity="0"
   inkscape:pageshadow="2"
   inkscape:window-width="640"
   inkscape:window-height="480"
   id="namedview5"
   showgrid="false"
   inkscape:zoom="26.166667"
   inkscape:cx="15"
   inkscape:cy="15"
   inkscape:current-layer="Layer_1"
   inkscape:document-rotation="0" />
<path
   d="m 9.785,16.555 c 0,0.92 0.23,1.78 0.7,2.57 0.47,0.79 1.1,1.43 1.9,1.9 0.8,0.47 1.66,0.71 2.59,0.71 0.93,0 1.8,-0.24 2.61,-0.71 0.81,-0.47 1.45,-1.11 1.92,-1.9 0.47,-0.8 0.71,-1.65 0.71,-2.57 0,-0.6 -0.17,-1.31 -0.52,-2.14 -0.35,-0.83 -0.77,-1.6 -1.26,-2.3 -0.44,-0.57 -0.96,-1.2 -1.56,-1.88 -0.6,-0.68 -1.65,-1.73 -1.89,-1.97 l -1.28,1.29 c -0.62,0.6 -1.22,1.29 -1.79,2.08 -0.57,0.79 -1.07,1.64 -1.49,2.55 -0.44,0.91 -0.64,1.7 -0.64,2.37 z"
   id="path2"
   style="fill:#99c1f1" />
</svg>
