<?xml version="1.0" encoding="UTF-8" standalone="no"?>
<svg
   xmlns:dc="http://purl.org/dc/elements/1.1/"
   xmlns:cc="http://creativecommons.org/ns#"
   xmlns:rdf="http://www.w3.org/1999/02/22-rdf-syntax-ns#"
   xmlns:svg="http://www.w3.org/2000/svg"
   xmlns="http://www.w3.org/2000/svg"
   xmlns:sodipodi="http://sodipodi.sourceforge.net/DTD/sodipodi-0.dtd"
   xmlns:inkscape="http://www.inkscape.org/namespaces/inkscape"
   version="1.1"
   id="Layer_1"
   x="0px"
   y="0px"
   viewBox="0 0 30 30"
   style="enable-background:new 0 0 30 30;"
   xml:space="preserve"
   sodipodi:docname="wind-skip.svg"
   inkscape:version="1.0.2-2 (e86c870879, 2021-01-15)"><metadata
   id="metadata9"><rdf:RDF><cc:Work
       rdf:about=""><dc:format>image/svg+xml</dc:format><dc:type
         rdf:resource="http://purl.org/dc/dcmitype/StillImage" /></cc:Work></rdf:RDF></metadata><defs
   id="defs7" /><sodipodi:namedview
   pagecolor="#ffffff"
   bordercolor="#666666"
   borderopacity="1"
   objecttolerance="10"
   gridtolerance="10"
   guidetolerance="10"
   inkscape:pageopacity="0"
   inkscape:pageshadow="2"
   inkscape:window-width="640"
   inkscape:window-height="480"
   id="namedview5"
   showgrid="false"
   inkscape:zoom="26.166667"
   inkscape:cx="15"
   inkscape:cy="15"
   inkscape:current-layer="Layer_1"
   inkscape:document-rotation="0" />
<path
   id="path2"
   style="fill:#c0bfbc"
   d="M 18.689453 7.7851562 C 17.949453 7.7851562 17.290469 8.0632812 16.730469 8.6132812 C 16.540469 8.7832812 16.449219 8.9941414 16.449219 9.2441406 C 16.449219 9.4741382 16.540703 9.6835176 16.720703 9.8535156 C 16.900703 10.023514 17.109375 10.113281 17.359375 10.113281 C 17.599375 10.113281 17.800937 10.033514 17.960938 9.8535156 C 18.150938 9.6635188 18.399453 9.5644531 18.689453 9.5644531 C 18.989453 9.5644531 19.229688 9.6635176 19.429688 9.8535156 C 19.629687 10.043514 19.730469 10.284219 19.730469 10.574219 C 19.730469 10.864219 19.629687 11.114453 19.429688 11.314453 C 19.229688 11.514453 18.989219 11.613281 18.699219 11.613281 L 13.810547 11.613281 L 15.601562 13.404297 L 18.689453 13.404297 C 19.459453 13.404297 20.129453 13.124453 20.689453 12.564453 C 21.249453 12.004453 21.529297 11.344453 21.529297 10.564453 C 21.529297 9.7844555 21.259219 9.13375 20.699219 8.59375 C 20.139219 8.05375 19.469453 7.7851562 18.689453 7.7851562 z M 4.0097656 11.613281 C 3.7497656 11.613281 3.5408594 11.704531 3.3808594 11.894531 C 3.1908594 12.064531 3.0996094 12.273672 3.0996094 12.513672 C 3.0996094 12.763672 3.1891406 12.974531 3.3691406 13.144531 C 3.5491406 13.314531 3.7597656 13.404297 4.0097656 13.404297 L 13.205078 13.404297 L 11.414062 11.613281 L 4.0097656 11.613281 z M 4.0097656 14.923828 C 3.7597656 14.923828 3.5508594 15.003594 3.3808594 15.183594 C 3.1908594 15.363594 3.0996094 15.564922 3.0996094 15.794922 C 3.0996094 16.044922 3.1891406 16.253359 3.3691406 16.443359 C 3.5491406 16.613359 3.7597656 16.705078 4.0097656 16.705078 L 16.507812 16.705078 L 14.724609 14.923828 L 4.0097656 14.923828 z M 17.121094 14.923828 L 18.902344 16.705078 L 24.050781 16.705078 C 24.340781 16.705078 24.579297 16.804141 24.779297 16.994141 C 24.979297 17.184141 25.080078 17.424844 25.080078 17.714844 C 25.080078 18.004844 24.979297 18.243359 24.779297 18.443359 C 24.579297 18.643359 24.340781 18.744141 24.050781 18.744141 C 23.770781 18.744141 23.539609 18.643594 23.349609 18.433594 C 23.169609 18.273594 22.960703 18.193359 22.720703 18.193359 C 22.470703 18.193359 22.259844 18.273594 22.089844 18.433594 C 21.919844 18.593594 21.830078 18.804453 21.830078 19.064453 C 21.830078 19.354453 21.919609 19.574375 22.099609 19.734375 C 22.629609 20.264375 23.280781 20.535156 24.050781 20.535156 C 24.830781 20.535156 25.500547 20.255078 26.060547 19.705078 C 26.620547 19.155078 26.900391 18.484844 26.900391 17.714844 C 26.900391 16.944844 26.620547 16.284141 26.060547 15.744141 C 25.500547 15.194141 24.830781 14.923828 24.050781 14.923828 L 17.121094 14.923828 z " />
<path
   style="color:#000000;font-style:normal;font-variant:normal;font-weight:normal;font-stretch:normal;font-size:medium;line-height:normal;font-family:sans-serif;font-variant-ligatures:normal;font-variant-position:normal;font-variant-caps:normal;font-variant-numeric:normal;font-variant-alternates:normal;font-variant-east-asian:normal;font-feature-settings:normal;font-variation-settings:normal;text-indent:0;text-align:start;text-decoration:none;text-decoration-line:none;text-decoration-style:solid;text-decoration-color:#000000;letter-spacing:normal;word-spacing:normal;text-transform:none;writing-mode:lr-tb;direction:ltr;text-orientation:mixed;dominant-baseline:auto;baseline-shift:baseline;text-anchor:start;white-space:normal;shape-padding:0;shape-margin:0;inline-size:0;clip-rule:nonzero;display:inline;overflow:visible;visibility:visible;isolation:auto;mix-blend-mode:normal;color-interpolation:sRGB;color-interpolation-filters:linearRGB;solid-color:#000000;solid-opacity:1;vector-effect:none;fill:#c0bfbc;fill-opacity:1;fill-rule:nonzero;stroke:none;stroke-width:1.69425;stroke-linecap:round;stroke-linejoin:miter;stroke-miterlimit:4;stroke-dasharray:none;stroke-dashoffset:0;stroke-opacity:1;color-rendering:auto;image-rendering:auto;shape-rendering:auto;text-rendering:auto;enable-background:accumulate;stop-color:#000000"
   d="M 7.5436717,6.5438121 24.456562,23.456703"
   id="path861" /><path
   style="color:#000000;font-style:normal;font-variant:normal;font-weight:normal;font-stretch:normal;font-size:medium;line-height:normal;font-family:sans-serif;font-variant-ligatures:normal;font-variant-position:normal;font-variant-caps:normal;font-variant-numeric:normal;font-variant-alternates:normal;font-variant-east-asian:normal;font-feature-settings:normal;font-variation-settings:normal;text-indent:0;text-align:start;text-decoration:none;text-decoration-line:none;text-decoration-style:solid;text-decoration-color:#000000;letter-spacing:normal;word-spacing:normal;text-transform:none;writing-mode:lr-tb;direction:ltr;text-orientation:mixed;dominant-baseline:auto;baseline-shift:baseline;text-anchor:start;white-space:normal;shape-padding:0;shape-margin:0;inline-size:0;clip-rule:nonzero;display:inline;overflow:visible;visibility:visible;isolation:auto;mix-blend-mode:normal;color-interpolation:sRGB;color-interpolation-filters:linearRGB;solid-color:#000000;solid-opacity:1;vector-effect:none;fill:#c0bfbc;fill-opacity:1;fill-rule:nonzero;stroke:none;stroke-width:1.69425;stroke-linecap:round;stroke-linejoin:miter;stroke-miterlimit:4;stroke-dasharray:none;stroke-dashoffset:0;stroke-opacity:1;color-rendering:auto;image-rendering:auto;shape-rendering:auto;text-rendering:auto;enable-background:accumulate;stop-color:#000000"
   d="M 5.5436717,6.5438121 22.456562,23.456703"
   id="path867" /><path
   style="color:#000000;font-style:normal;font-variant:normal;font-weight:normal;font-stretch:normal;font-size:medium;line-height:normal;font-family:sans-serif;font-variant-ligatures:normal;font-variant-position:normal;font-variant-caps:normal;font-variant-numeric:normal;font-variant-alternates:normal;font-variant-east-asian:normal;font-feature-settings:normal;font-variation-settings:normal;text-indent:0;text-align:start;text-decoration:none;text-decoration-line:none;text-decoration-style:solid;text-decoration-color:#000000;letter-spacing:normal;word-spacing:normal;text-transform:none;writing-mode:lr-tb;direction:ltr;text-orientation:mixed;dominant-baseline:auto;baseline-shift:baseline;text-anchor:start;white-space:normal;shape-padding:0;shape-margin:0;inline-size:0;clip-rule:nonzero;display:inline;overflow:visible;visibility:visible;isolation:auto;mix-blend-mode:normal;color-interpolation:sRGB;color-interpolation-filters:linearRGB;solid-color:#000000;solid-opacity:1;vector-effect:none;fill:#c0bfbc;fill-opacity:1;fill-rule:nonzero;stroke:none;stroke-linecap:round;stroke-linejoin:miter;stroke-miterlimit:4;stroke-dasharray:none;stroke-dashoffset:0;stroke-opacity:1;color-rendering:auto;image-rendering:auto;shape-rendering:auto;text-rendering:auto;enable-background:accumulate;stop-color:#000000"
   d="m 5.5126951,5.6977078 a 0.84712499,0.84712499 0 0 0 -0.5683593,0.2480469 0.84712499,0.84712499 0 0 0 0,1.1972656 L 21.858398,24.05513 a 0.84712499,0.84712499 0 0 0 1.197266,0 0.84712499,0.84712499 0 0 0 0,-1.197266 L 6.1435545,5.9457547 A 0.84712499,0.84712499 0 0 0 5.5126951,5.6977078 Z"
   id="path869" /></svg>
